<mxfile host="app.diagrams.net" modified="2024-06-19T14:25:21.116Z" agent="Mozilla/5.0 (Macintosh; Intel Mac OS X 10_15_7) AppleWebKit/605.1.15 (KHTML, like Gecko) Version/17.4 Safari/605.1.15" etag="N8EYfSwkd7NwFgmqqZ3F" version="24.5.5" type="github">
  <diagram name="Page-1" id="q2Jbj9jXo_gZTiccc0qb">
    <mxGraphModel dx="890" dy="1688" grid="1" gridSize="10" guides="1" tooltips="1" connect="1" arrows="1" fold="1" page="1" pageScale="1" pageWidth="850" pageHeight="1100" math="0" shadow="0">
      <root>
        <mxCell id="0" />
        <mxCell id="1" parent="0" />
        <mxCell id="kAfQUqZbJTXlSHJmYTkc-2" value="Gobierno y Gestión de Seguridad de la Información" style="rounded=1;whiteSpace=wrap;html=1;" vertex="1" parent="1">
          <mxGeometry x="20" y="525" width="120" height="60" as="geometry" />
        </mxCell>
        <mxCell id="kAfQUqZbJTXlSHJmYTkc-6" value="" style="shape=curlyBracket;whiteSpace=wrap;html=1;rounded=1;flipH=1;labelPosition=right;verticalLabelPosition=middle;align=left;verticalAlign=middle;strokeWidth=2;rotation=-180;" vertex="1" parent="1">
          <mxGeometry x="150" y="50" width="20" height="1010" as="geometry" />
        </mxCell>
        <mxCell id="kAfQUqZbJTXlSHJmYTkc-7" value="ISO/IEC&lt;div&gt;38500:2015&lt;/div&gt;" style="rounded=1;whiteSpace=wrap;html=1;" vertex="1" parent="1">
          <mxGeometry x="210" y="190" width="120" height="60" as="geometry" />
        </mxCell>
        <mxCell id="kAfQUqZbJTXlSHJmYTkc-8" value="" style="shape=curlyBracket;whiteSpace=wrap;html=1;rounded=1;flipH=1;labelPosition=right;verticalLabelPosition=middle;align=left;verticalAlign=middle;strokeWidth=2;rotation=-180;" vertex="1" parent="1">
          <mxGeometry x="340" y="183.75" width="20" height="72.5" as="geometry" />
        </mxCell>
        <mxCell id="kAfQUqZbJTXlSHJmYTkc-9" value="Evolución a ISO/IEC&lt;div&gt;38500:2024&lt;/div&gt;" style="rounded=1;whiteSpace=wrap;html=1;" vertex="1" parent="1">
          <mxGeometry x="540" y="352.5" width="120" height="60" as="geometry" />
        </mxCell>
        <mxCell id="kAfQUqZbJTXlSHJmYTkc-10" value="" style="shape=curlyBracket;whiteSpace=wrap;html=1;rounded=1;flipH=1;labelPosition=right;verticalLabelPosition=middle;align=left;verticalAlign=middle;strokeWidth=2;rotation=-180;" vertex="1" parent="1">
          <mxGeometry x="670" y="331.25" width="20" height="102.5" as="geometry" />
        </mxCell>
        <mxCell id="kAfQUqZbJTXlSHJmYTkc-11" value="Principios de gobernanza y TI ampliados" style="rounded=1;whiteSpace=wrap;html=1;" vertex="1" parent="1">
          <mxGeometry x="860" y="230.5" width="120" height="60" as="geometry" />
        </mxCell>
        <mxCell id="kAfQUqZbJTXlSHJmYTkc-12" value="Marco actualizado para la gobernanza de TI" style="rounded=1;whiteSpace=wrap;html=1;" vertex="1" parent="1">
          <mxGeometry x="860" y="469.25" width="120" height="60" as="geometry" />
        </mxCell>
        <mxCell id="kAfQUqZbJTXlSHJmYTkc-13" value="Compromiso de los Stakeholders" style="rounded=1;whiteSpace=wrap;html=1;" vertex="1" parent="1">
          <mxGeometry x="860" y="350.51" width="120" height="60" as="geometry" />
        </mxCell>
        <mxCell id="kAfQUqZbJTXlSHJmYTkc-14" value="Fomenta el uso eficaz, eficiente y adecuado de las TI" style="rounded=1;whiteSpace=wrap;html=1;" vertex="1" parent="1">
          <mxGeometry x="370" y="190" width="120" height="60" as="geometry" />
        </mxCell>
        <mxCell id="kAfQUqZbJTXlSHJmYTkc-15" value="Optmización del uso de la tecnología en las organizaciones" style="rounded=1;whiteSpace=wrap;html=1;" vertex="1" parent="1">
          <mxGeometry x="700" y="352.5" width="120" height="60" as="geometry" />
        </mxCell>
        <mxCell id="kAfQUqZbJTXlSHJmYTkc-16" value="" style="shape=curlyBracket;whiteSpace=wrap;html=1;rounded=1;flipH=1;labelPosition=right;verticalLabelPosition=middle;align=left;verticalAlign=middle;strokeWidth=2;rotation=-180;" vertex="1" parent="1">
          <mxGeometry x="830" y="214.84" width="20" height="335.32" as="geometry" />
        </mxCell>
        <mxCell id="kAfQUqZbJTXlSHJmYTkc-17" value="" style="shape=curlyBracket;whiteSpace=wrap;html=1;rounded=1;flipH=1;labelPosition=right;verticalLabelPosition=middle;align=left;verticalAlign=middle;strokeWidth=2;rotation=-180;" vertex="1" parent="1">
          <mxGeometry x="990" y="208" width="20" height="102.5" as="geometry" />
        </mxCell>
        <mxCell id="kAfQUqZbJTXlSHJmYTkc-18" value="" style="shape=curlyBracket;whiteSpace=wrap;html=1;rounded=1;flipH=1;labelPosition=right;verticalLabelPosition=middle;align=left;verticalAlign=middle;strokeWidth=2;rotation=-180;" vertex="1" parent="1">
          <mxGeometry x="990" y="329.26" width="20" height="102.5" as="geometry" />
        </mxCell>
        <mxCell id="kAfQUqZbJTXlSHJmYTkc-19" value="" style="shape=curlyBracket;whiteSpace=wrap;html=1;rounded=1;flipH=1;labelPosition=right;verticalLabelPosition=middle;align=left;verticalAlign=middle;strokeWidth=2;rotation=-180;" vertex="1" parent="1">
          <mxGeometry x="990" y="447.99999999999994" width="20" height="102.5" as="geometry" />
        </mxCell>
        <mxCell id="kAfQUqZbJTXlSHJmYTkc-20" value="Cohesión entre las estrategias de TI y los objetivos generales de la empresa" style="rounded=1;whiteSpace=wrap;html=1;" vertex="1" parent="1">
          <mxGeometry x="1020" y="229.25" width="150" height="60" as="geometry" />
        </mxCell>
        <mxCell id="kAfQUqZbJTXlSHJmYTkc-21" value="Interacción y comunicación efectiva con los interesados" style="rounded=1;whiteSpace=wrap;html=1;" vertex="1" parent="1">
          <mxGeometry x="1020" y="350.5" width="150" height="60" as="geometry" />
        </mxCell>
        <mxCell id="kAfQUqZbJTXlSHJmYTkc-22" value="Adaptación y aplicación de la norma en contextos específicos" style="rounded=1;whiteSpace=wrap;html=1;" vertex="1" parent="1">
          <mxGeometry x="1020" y="469.24999999999994" width="150" height="60" as="geometry" />
        </mxCell>
        <mxCell id="kAfQUqZbJTXlSHJmYTkc-23" value="" style="shape=curlyBracket;whiteSpace=wrap;html=1;rounded=1;flipH=1;labelPosition=right;verticalLabelPosition=middle;align=left;verticalAlign=middle;strokeWidth=2;rotation=-180;" vertex="1" parent="1">
          <mxGeometry x="500" y="2.5" width="20" height="441.25" as="geometry" />
        </mxCell>
        <mxCell id="kAfQUqZbJTXlSHJmYTkc-24" value="Principios de su gestión organizacional como herramienta para la toma de decisiones basada en resultados" style="rounded=1;whiteSpace=wrap;html=1;" vertex="1" parent="1">
          <mxGeometry x="540" y="50" width="180" height="60" as="geometry" />
        </mxCell>
        <mxCell id="kAfQUqZbJTXlSHJmYTkc-25" value="&lt;div style=&quot;&quot;&gt;&lt;ul&gt;&lt;li&gt;Responsabilidad&lt;br&gt;&lt;/li&gt;&lt;li&gt;Estratégia&lt;br&gt;&lt;/li&gt;&lt;li&gt;Adquisición&lt;br&gt;&lt;/li&gt;&lt;li&gt;Desempeño&lt;br&gt;&lt;/li&gt;&lt;li&gt;Conformidad&lt;br&gt;&lt;/li&gt;&lt;li&gt;Comportamiento&lt;br&gt;&lt;/li&gt;&lt;/ul&gt;&lt;/div&gt;" style="rounded=1;whiteSpace=wrap;html=1;align=left;" vertex="1" parent="1">
          <mxGeometry x="760" y="30" width="160" height="100" as="geometry" />
        </mxCell>
        <mxCell id="kAfQUqZbJTXlSHJmYTkc-26" value="" style="shape=curlyBracket;whiteSpace=wrap;html=1;rounded=1;flipH=1;labelPosition=right;verticalLabelPosition=middle;align=left;verticalAlign=middle;strokeWidth=2;rotation=-180;" vertex="1" parent="1">
          <mxGeometry x="730" y="10" width="20" height="140" as="geometry" />
        </mxCell>
        <mxCell id="kAfQUqZbJTXlSHJmYTkc-27" value="Responsabilidad" style="rounded=1;whiteSpace=wrap;html=1;" vertex="1" parent="1">
          <mxGeometry x="1000" y="-80" width="110" height="30" as="geometry" />
        </mxCell>
        <mxCell id="kAfQUqZbJTXlSHJmYTkc-28" value="Estrategia" style="rounded=1;whiteSpace=wrap;html=1;" vertex="1" parent="1">
          <mxGeometry x="1000" y="-40" width="110" height="30" as="geometry" />
        </mxCell>
        <mxCell id="kAfQUqZbJTXlSHJmYTkc-29" value="Adquisición" style="rounded=1;whiteSpace=wrap;html=1;" vertex="1" parent="1">
          <mxGeometry x="1000" width="110" height="30" as="geometry" />
        </mxCell>
        <mxCell id="kAfQUqZbJTXlSHJmYTkc-30" value="Desempeño" style="rounded=1;whiteSpace=wrap;html=1;" vertex="1" parent="1">
          <mxGeometry x="1000" y="40" width="110" height="30" as="geometry" />
        </mxCell>
        <mxCell id="kAfQUqZbJTXlSHJmYTkc-31" value="Conformidad" style="rounded=1;whiteSpace=wrap;html=1;" vertex="1" parent="1">
          <mxGeometry x="1000" y="80" width="110" height="30" as="geometry" />
        </mxCell>
        <mxCell id="kAfQUqZbJTXlSHJmYTkc-32" value="Comportamiento" style="rounded=1;whiteSpace=wrap;html=1;" vertex="1" parent="1">
          <mxGeometry x="1000" y="120" width="110" height="30" as="geometry" />
        </mxCell>
      </root>
    </mxGraphModel>
  </diagram>
</mxfile>
